<mxfile host="app.diagrams.net" modified="2020-12-17T07:55:40.102Z" agent="5.0 (Macintosh; Intel Mac OS X 10_14_6) AppleWebKit/537.36 (KHTML, like Gecko) Chrome/87.0.4280.88 Safari/537.36" etag="ErhL5MHdpj3FBHJijzc8" version="14.0.4" type="github">
  <diagram id="bIFuc6_pQIDev2zaLWd9" name="Page-1">
    <mxGraphModel dx="946" dy="515" grid="1" gridSize="10" guides="1" tooltips="1" connect="1" arrows="1" fold="1" page="1" pageScale="1" pageWidth="827" pageHeight="1169" math="0" shadow="0">
      <root>
        <mxCell id="0" />
        <mxCell id="1" parent="0" />
        <mxCell id="MVyQ48nf2JYBs-kyZYLc-1" value="HDFS" style="rounded=0;whiteSpace=wrap;html=1;" vertex="1" parent="1">
          <mxGeometry x="200" y="340" width="530" height="60" as="geometry" />
        </mxCell>
        <mxCell id="MVyQ48nf2JYBs-kyZYLc-5" value="hbase实时数仓" style="rounded=0;whiteSpace=wrap;html=1;" vertex="1" parent="1">
          <mxGeometry x="500" y="210" width="230" height="110" as="geometry" />
        </mxCell>
        <mxCell id="MVyQ48nf2JYBs-kyZYLc-6" value="hive离线数仓" style="rounded=0;whiteSpace=wrap;html=1;" vertex="1" parent="1">
          <mxGeometry x="200" y="210" width="230" height="110" as="geometry" />
        </mxCell>
        <mxCell id="MVyQ48nf2JYBs-kyZYLc-7" value="离线集群" style="text;html=1;strokeColor=none;fillColor=none;align=center;verticalAlign=middle;whiteSpace=wrap;rounded=0;fontSize=15;" vertex="1" parent="1">
          <mxGeometry x="242" y="60" width="70" height="20" as="geometry" />
        </mxCell>
        <mxCell id="MVyQ48nf2JYBs-kyZYLc-8" value="实时集群" style="text;html=1;strokeColor=none;fillColor=none;align=center;verticalAlign=middle;whiteSpace=wrap;rounded=0;fontSize=15;" vertex="1" parent="1">
          <mxGeometry x="585" y="60" width="70" height="20" as="geometry" />
        </mxCell>
        <mxCell id="MVyQ48nf2JYBs-kyZYLc-9" value="Cloudera集群" style="text;html=1;strokeColor=none;fillColor=none;align=center;verticalAlign=middle;whiteSpace=wrap;rounded=0;fontSize=20;" vertex="1" parent="1">
          <mxGeometry x="379" y="35" width="140" height="20" as="geometry" />
        </mxCell>
        <mxCell id="MVyQ48nf2JYBs-kyZYLc-11" value="" style="shape=flexArrow;endArrow=classic;html=1;fontSize=20;" edge="1" parent="1">
          <mxGeometry width="50" height="50" relative="1" as="geometry">
            <mxPoint x="440" y="270" as="sourcePoint" />
            <mxPoint x="490" y="270" as="targetPoint" />
          </mxGeometry>
        </mxCell>
        <mxCell id="MVyQ48nf2JYBs-kyZYLc-12" value="补数" style="text;html=1;strokeColor=none;fillColor=none;align=center;verticalAlign=middle;whiteSpace=wrap;rounded=0;fontSize=15;" vertex="1" parent="1">
          <mxGeometry x="445" y="230" width="40" height="20" as="geometry" />
        </mxCell>
      </root>
    </mxGraphModel>
  </diagram>
</mxfile>
